<svg width="20" height="28" viewBox="0 0 20 28" fill="none" xmlns="http://www.w3.org/2000/svg">
<g clip-path="url(#clip0_109_2)">
<path d="M2.3291 7.94797C2.35243 6.19331 2.35243 4.4386 2.3291 2.68393C2.3291 2.30693 2.496 2.28995 2.781 2.29795C3.048 2.30395 3.25899 2.27797 3.24499 2.67197C3.21599 3.56697 3.23608 4.46295 3.23608 5.35795C3.23608 6.21695 3.21399 7.07695 3.24499 7.93595C3.25899 8.32195 3.06899 8.32294 2.79199 8.31394C2.53599 8.30794 2.3201 8.35297 2.3291 7.94797Z" fill="#414141"/>
<path d="M4.61001 5.60798C4.64701 5.12598 4.62002 4.63996 4.62002 4.15596C4.62002 3.67196 4.64299 3.18599 4.61099 2.70399C4.58899 2.35499 4.72094 2.26396 5.03994 2.29896C5.29394 2.32596 5.58295 2.21597 5.57095 2.67097C5.54495 3.65764 5.54495 4.64396 5.57095 5.62996C5.58295 6.08296 5.29802 5.98098 5.04202 6.00398C4.73802 6.03098 4.58301 5.96998 4.61001 5.60798Z" fill="#414141"/>
<path d="M6.01693 15.7519C6.02769 15.6758 6.02037 15.5981 5.99557 15.5254C5.97077 15.4526 5.92924 15.3866 5.87423 15.3328C5.81923 15.2791 5.75228 15.2391 5.67892 15.216C5.60557 15.1929 5.52787 15.1874 5.45199 15.1999C4.59333 15.2072 3.7343 15.2072 2.87497 15.1999C2.48297 15.1999 2.331 15.3919 2.337 15.7639C2.344 16.1759 2.337 16.5879 2.337 16.9989C2.337 17.4459 2.337 17.8939 2.337 18.3409C2.32639 18.4124 2.3324 18.4854 2.3547 18.5541C2.37701 18.6228 2.41498 18.6855 2.46554 18.7371C2.51611 18.7887 2.57795 18.828 2.64621 18.8517C2.71447 18.8754 2.78729 18.883 2.85898 18.8739C3.73498 18.8739 4.61296 18.8789 5.48996 18.8739C5.56214 18.8802 5.63479 18.8702 5.7026 18.8447C5.77042 18.8192 5.83164 18.7788 5.8818 18.7265C5.93197 18.6742 5.96983 18.6114 5.99252 18.5426C6.01521 18.4738 6.02214 18.4007 6.01291 18.3289C6.02191 17.4699 6.01893 16.6099 6.01693 15.7519ZM4.11691 17.9359C3.23591 17.9359 3.23593 17.9359 3.23593 17.0749C3.23593 16.1019 3.23602 16.1019 4.22702 16.1019C5.07202 16.1019 5.07199 16.1019 5.07199 17.0019C5.07099 17.9349 5.07093 17.9349 4.11593 17.9349L4.11691 17.9359Z" fill="#414141"/>
<path d="M19.353 15.5249C19.3649 14.3148 18.9519 13.1388 18.186 12.2019C16.813 10.5019 15.46 8.77891 14.086 7.07891C13.9012 6.86201 13.8045 6.58364 13.815 6.29888C13.825 5.00688 13.83 3.71289 13.815 2.42089C13.8343 2.0969 13.7839 1.77254 13.6673 1.46966C13.5507 1.16677 13.3704 0.892376 13.1388 0.66497C12.9073 0.437565 12.6297 0.262402 12.3248 0.151298C12.0198 0.0401943 11.6946 -0.00427652 11.371 0.0208661C8.48003 0.0208661 5.58695 0.07187 2.69695 -0.00012995C2.33567 -0.0303165 1.9722 0.0186415 1.63177 0.143303C1.29133 0.267964 0.982116 0.465378 0.725761 0.721733C0.469406 0.978088 0.272053 1.28724 0.147392 1.62768C0.0227308 1.96811 -0.0262271 2.33158 0.00395941 2.69286C0.0509594 5.31286 0.0170209 7.93591 0.0170209 10.5579C0.0170209 13.2689 0.00802093 15.9809 0.0170209 18.6919C-0.00796266 19.0199 0.0378294 19.3495 0.15142 19.6582C0.265011 19.9669 0.443727 20.2476 0.675346 20.4813C0.906966 20.7149 1.18607 20.8959 1.49383 21.0121C1.80158 21.1284 2.13081 21.1771 2.45904 21.1549C3.41104 21.1609 4.35902 21.1549 5.31402 21.1549C6.44902 21.1549 6.44903 21.1549 6.45403 22.2909C6.44502 22.9913 6.57636 23.6863 6.84038 24.3351C7.10441 24.9838 7.49575 25.5732 7.99126 26.0682C8.48677 26.5633 9.07639 26.954 9.7254 27.2174C10.3744 27.4808 11.0696 27.6115 11.77 27.6019H18.559C19.23 27.6019 19.3589 27.4879 19.3589 26.8359C19.3583 23.0652 19.3563 19.2949 19.353 15.5249ZM11.47 0.945915C11.6542 0.937285 11.8382 0.965957 12.011 1.03027C12.1839 1.09457 12.342 1.19318 12.4758 1.32012C12.6095 1.44706 12.7162 1.59974 12.7895 1.76897C12.8627 1.93821 12.901 2.12046 12.902 2.30486C12.918 6.28186 12.91 10.2599 12.91 14.3739C12.279 13.7089 11.7441 13.1339 11.1981 12.5739C11.1472 12.5127 11.1101 12.4413 11.0894 12.3645C11.0687 12.2877 11.0649 12.2073 11.0781 12.1289C11.0781 8.5289 11.078 4.92291 11.071 1.32091C11.071 0.997915 11.179 0.934915 11.47 0.945915ZM8.75701 1.35589C8.75701 1.00689 8.88 0.942863 9.195 0.942863C10.129 0.942863 10.129 0.928912 10.129 1.85491V11.3699C9.72795 10.9564 9.30226 10.5677 8.85406 10.2059C8.71306 10.1219 8.76495 9.9439 8.76495 9.8059C8.76395 6.9879 8.77001 4.17089 8.75701 1.35589ZM2.45 20.2559C2.24746 20.2722 2.04386 20.2439 1.85345 20.173C1.66303 20.102 1.49048 19.9902 1.34795 19.8454C1.20542 19.7006 1.09638 19.5262 1.0285 19.3347C0.960612 19.1432 0.935498 18.9391 0.955009 18.7369C0.955009 16.0075 0.955009 13.2786 0.955009 10.5499C0.955009 7.87459 0.955009 5.19956 0.955009 2.52489C0.922763 2.31452 0.93978 2.0995 1.00481 1.89684C1.06985 1.69419 1.18112 1.50943 1.32977 1.35711C1.47841 1.20478 1.66038 1.08907 1.86138 1.0191C2.06238 0.949121 2.27687 0.926825 2.48797 0.953911C4.13997 0.943911 5.788 0.959863 7.445 0.942863C7.78 0.942863 7.85996 1.03487 7.85796 1.36187C7.8433 4.0912 7.8433 6.82021 7.85796 9.54888C7.85796 9.84088 7.77394 9.9089 7.48894 9.9649C7.10975 10.0201 6.75261 10.177 6.4555 10.419C6.15839 10.661 5.93248 10.979 5.80169 11.3392C5.67089 11.6993 5.6401 12.0882 5.7127 12.4645C5.7853 12.8407 5.95863 13.1902 6.21404 13.4759C6.67104 14.0519 7.15597 14.6059 7.63897 15.1609C7.70771 15.2287 7.76236 15.3095 7.79961 15.3986C7.83687 15.4877 7.85602 15.5833 7.85601 15.6799C7.84701 17.0799 7.84201 18.4799 7.85601 19.8799C7.85601 20.1949 7.75599 20.2659 7.45599 20.2639C5.78999 20.2529 4.12 20.2679 2.45 20.2559ZM17.9159 26.6839C15.9049 26.6649 13.893 26.6369 11.882 26.6839C11.2859 26.7049 10.6919 26.6029 10.137 26.384C9.58213 26.1652 9.07829 25.8343 8.65704 25.412C8.23578 24.9897 7.90614 24.4851 7.68865 23.9297C7.47117 23.3743 7.37049 22.7799 7.393 22.1839C7.444 21.1619 7.393 21.1599 8.445 21.1599C8.929 21.1599 9.41498 21.1769 9.89898 21.1539C9.9667 21.1406 10.0364 21.1412 10.1039 21.1553C10.1715 21.1695 10.2355 21.1971 10.2922 21.2364C10.3489 21.2758 10.3971 21.3261 10.434 21.3844C10.4709 21.4427 10.4957 21.5078 10.507 21.5759C10.7689 22.3502 11.187 23.0625 11.7354 23.6686C12.2838 24.2748 12.9507 24.762 13.695 25.0999C13.862 25.1799 14.126 25.4419 14.222 24.9999C14.279 24.7379 14.6221 24.4999 14.1041 24.2519C13.1689 23.8604 12.3781 23.1886 11.8408 22.3289C11.3034 21.4692 11.0461 20.464 11.1041 19.4519C11.149 18.9151 11.0761 18.3749 10.8906 17.8692C10.7051 17.3635 10.4113 16.9044 10.03 16.5239C8.92996 15.3909 7.96606 14.1349 6.95306 12.9239C6.76122 12.7313 6.64038 12.4794 6.6104 12.2092C6.58043 11.9391 6.64305 11.6668 6.78802 11.4369C6.91471 11.2279 7.10334 11.0635 7.32769 10.9665C7.55204 10.8696 7.80094 10.8449 8.03997 10.8959C8.35812 10.9631 8.64085 11.1441 8.83501 11.4049C10.744 13.4289 12.659 15.4489 14.556 17.4859C14.808 17.7579 14.9439 17.7789 15.2129 17.5079C15.4619 17.2569 15.566 17.0899 15.238 16.8469C14.6841 16.442 14.2545 15.8904 13.9974 15.2543C13.7403 14.6182 13.6661 13.9229 13.783 13.2469C13.917 11.6469 13.813 10.0249 13.813 8.4129L13.92 8.35589C14.958 9.65589 15.987 10.9649 17.039 12.2559C17.6989 12.9432 18.1531 13.8016 18.35 14.7339C18.3848 14.9456 18.4044 15.1594 18.409 15.3739C18.409 18.9829 18.404 22.5929 18.424 26.2019C18.429 26.6189 18.2949 26.6869 17.9159 26.6839Z" fill="#414141"/>
<path d="M2.3291 7.94797C2.35243 6.19331 2.35243 4.4386 2.3291 2.68393C2.3291 2.30693 2.496 2.28995 2.781 2.29795C3.048 2.30395 3.25899 2.27797 3.24499 2.67197C3.21599 3.56697 3.23608 4.46295 3.23608 5.35795C3.23608 6.21695 3.21399 7.07695 3.24499 7.93595C3.25899 8.32195 3.06899 8.32294 2.79199 8.31394C2.53599 8.30794 2.3201 8.35297 2.3291 7.94797Z" fill="#414141"/>
<path d="M4.61001 5.60798C4.64701 5.12598 4.62002 4.63996 4.62002 4.15596C4.62002 3.67196 4.64299 3.18599 4.61099 2.70399C4.58899 2.35499 4.72094 2.26396 5.03994 2.29896C5.29394 2.32596 5.58295 2.21597 5.57095 2.67097C5.54495 3.65764 5.54495 4.64396 5.57095 5.62996C5.58295 6.08296 5.29802 5.98098 5.04202 6.00398C4.73802 6.03098 4.58301 5.96998 4.61001 5.60798Z" fill="#414141"/>
<path d="M6.01693 15.7519C6.02769 15.6758 6.02037 15.5981 5.99557 15.5254C5.97077 15.4526 5.92924 15.3866 5.87423 15.3328C5.81923 15.2791 5.75228 15.2391 5.67892 15.216C5.60557 15.1929 5.52787 15.1874 5.45199 15.1999C4.59333 15.2072 3.7343 15.2072 2.87497 15.1999C2.48297 15.1999 2.331 15.3919 2.337 15.7639C2.344 16.1759 2.337 16.5879 2.337 16.9989C2.337 17.4459 2.337 17.8939 2.337 18.3409C2.32639 18.4124 2.3324 18.4854 2.3547 18.5541C2.37701 18.6228 2.41498 18.6855 2.46554 18.7371C2.51611 18.7887 2.57795 18.828 2.64621 18.8517C2.71447 18.8754 2.78729 18.883 2.85898 18.8739C3.73498 18.8739 4.61296 18.8789 5.48996 18.8739C5.56214 18.8802 5.63479 18.8702 5.7026 18.8447C5.77042 18.8192 5.83164 18.7788 5.8818 18.7265C5.93197 18.6742 5.96983 18.6114 5.99252 18.5426C6.01521 18.4738 6.02214 18.4007 6.01291 18.3289C6.02191 17.4699 6.01893 16.6099 6.01693 15.7519ZM4.11691 17.9359C3.23591 17.9359 3.23593 17.9359 3.23593 17.0749C3.23593 16.1019 3.23602 16.1019 4.22702 16.1019C5.07202 16.1019 5.07199 16.1019 5.07199 17.0019C5.07099 17.9349 5.07093 17.9349 4.11593 17.9349L4.11691 17.9359Z" fill="#414141"/>
<path d="M6.01693 15.7519C6.02769 15.6758 6.02037 15.5981 5.99557 15.5254C5.97077 15.4526 5.92924 15.3866 5.87423 15.3328C5.81923 15.2791 5.75228 15.2391 5.67892 15.216C5.60557 15.1929 5.52787 15.1874 5.45199 15.1999C4.59333 15.2072 3.7343 15.2072 2.87497 15.1999C2.48297 15.1999 2.331 15.3919 2.337 15.7639C2.344 16.1759 2.337 16.5879 2.337 16.9989C2.337 17.4459 2.337 17.8939 2.337 18.3409C2.32639 18.4124 2.3324 18.4854 2.3547 18.5541C2.37701 18.6228 2.41498 18.6855 2.46554 18.7371C2.51611 18.7887 2.57795 18.828 2.64621 18.8517C2.71447 18.8754 2.78729 18.883 2.85898 18.8739C3.73498 18.8739 4.61296 18.8789 5.48996 18.8739C5.56214 18.8802 5.63479 18.8702 5.7026 18.8447C5.77042 18.8192 5.83164 18.7788 5.8818 18.7265C5.93197 18.6742 5.96983 18.6114 5.99252 18.5426C6.01521 18.4738 6.02214 18.4007 6.01291 18.3289C6.02191 17.4699 6.01893 16.6099 6.01693 15.7519ZM4.11691 17.9359C3.23591 17.9359 3.23593 17.9359 3.23593 17.0749C3.23593 16.1019 3.23602 16.1019 4.22702 16.1019C5.07202 16.1019 5.07199 16.1019 5.07199 17.0019C5.07099 17.9349 5.07093 17.9349 4.11593 17.9349L4.11691 17.9359Z" fill="#414141"/>
<path d="M2.794 8.31491C2.536 8.30791 2.32404 8.35295 2.32904 7.94895C2.35237 6.19428 2.35237 4.43964 2.32904 2.68497C2.32904 2.30797 2.49594 2.29092 2.78094 2.29892C3.04794 2.30492 3.25893 2.27895 3.24493 2.67295C3.21593 3.56795 3.23602 4.46392 3.23602 5.35892C3.23602 6.21792 3.21393 7.07792 3.24493 7.93692C3.26093 8.32192 3.071 8.32291 2.794 8.31491Z" fill="#414141"/>
<path d="M5.57199 5.62886C5.58399 6.08186 5.29906 5.97988 5.04306 6.00288C4.74306 6.03088 4.58405 5.96886 4.61105 5.60286C4.64805 5.12086 4.62106 4.63483 4.62106 4.15083C4.62106 3.66683 4.64403 3.18086 4.61203 2.69886C4.59003 2.34986 4.72198 2.25884 5.04098 2.29384C5.29498 2.32084 5.58399 2.21084 5.57199 2.66584C5.54599 3.65518 5.54599 4.64286 5.57199 5.62886Z" fill="#414141"/>
</g>
<defs>
<clipPath id="clip0_109_2">
<rect width="19.359" height="27.604" fill="white"/>
</clipPath>
</defs>
</svg>
