<svg width="241" height="266" viewBox="0 0 241 266" fill="none" xmlns="http://www.w3.org/2000/svg">
<g clip-path="url(#clip0_109_26)">
<path d="M70.92 259.058C64.62 242.426 58.376 225.474 52.326 209.088L47.047 194.771C46.275 192.702 45.52 190.592 44.789 188.548C43.213 184.148 41.579 179.6 39.773 175.224C37.4433 170.304 36.739 164.771 37.762 159.424C37.7503 158.111 37.6131 156.803 37.352 155.516C34.232 158.8 32.197 160.442 29.381 160.442C26.3965 160.076 23.5143 159.121 20.901 157.634L20.154 157.297C15.3851 154.772 11.5968 150.726 9.391 145.802C8.816 144.817 8.233 143.802 7.626 142.838C6.95307 141.422 6.83011 139.807 7.281 138.306C7.322 138.019 7.371 137.723 7.412 137.436L0 129.876L1.814 128.571L3.8 127.143C5.442 125.936 7.19 124.68 8.947 123.506L9.169 123.383C9.99441 122.976 10.8508 122.636 11.73 122.365C14.193 121.273 16.77 120.124 19.23 118.999L20.486 118.424C18.9511 114.464 17.0259 110.666 14.739 107.087C13.2756 105.671 12.2958 103.83 11.9391 101.826C11.5824 99.8214 11.8668 97.7555 12.752 95.9219C13.0472 95.2341 13.302 94.5295 13.515 93.8119C13.6243 93.4559 13.742 93.0976 13.868 92.7369C16.15 86.1199 17.152 83.0989 21.979 83.0989C24.2105 83.2214 26.4286 83.5224 28.612 83.9989H28.817C29.402 84.0091 29.9832 83.9033 30.5271 83.6877C31.0709 83.4722 31.5668 83.1511 31.986 82.7429L32.052 82.6769C35.9253 79.2911 39.4 75.4748 42.409 71.3019C45.479 66.3759 48.155 61.0319 50.758 55.8599C51.702 53.9799 52.658 52.0429 53.658 50.1139C53.206 49.5969 52.739 49.0959 52.258 48.6139C48.603 45.7803 45.7229 42.0694 43.8849 37.8255C42.0469 33.5817 41.3105 28.9424 41.744 24.3379C41.43 22.3147 40.3842 20.4771 38.805 19.1739L38.698 19.0669C35.874 16.3249 34.257 14.2809 34.38 11.9329C34.52 9.40494 36.662 7.51594 39.47 5.30794C42.7345 2.1892 46.995 0.322773 51.5007 0.0375724C56.0065 -0.247628 60.4684 1.0667 64.1 3.74894C69.6878 7.08142 76.073 8.84021 82.579 8.83894C84.8106 8.83912 87.0374 8.63291 89.231 8.22294H89.54C92.443 8.16888 95.3241 8.73564 97.9904 9.88526C100.657 11.0349 103.046 12.7409 105 14.8889C105.78 16.0392 106.263 17.3645 106.406 18.7468C106.549 20.129 106.348 21.5252 105.821 22.8109C104.762 25.4539 103.473 28.0239 102.221 30.5029C101.129 32.6779 100.004 34.9279 99.06 37.1769C98.5664 38.4461 98.5451 39.8504 99 41.1339C100.006 42.6872 100.409 44.5549 100.133 46.3848C99.8564 48.2146 98.9199 49.8801 97.5 51.0669C98.009 51.8879 98.477 52.6509 98.937 53.4389C99.5907 55.0268 100.554 56.4687 101.77 57.6808C102.987 58.8929 104.432 59.8508 106.022 60.4989C108.649 61.3199 109.79 66.0319 109.642 68.2079V68.3559C109.214 71.2689 108.561 74.1442 107.688 76.9559L154.481 96.9619L155.45 94.9009L158.545 88.3909C158.866 87.3477 159.449 86.4043 160.239 85.6512C161.029 84.8981 161.999 84.3606 163.056 84.0903C164.114 83.8199 165.223 83.8258 166.277 84.1073C167.332 84.3888 168.296 84.9366 169.078 85.6979C170.293 86.5759 171.418 87.5449 172.518 88.4809C173.878 89.7054 175.327 90.8278 176.852 91.8389C178.749 92.8736 180.692 93.8259 182.681 94.6959L183.297 94.0799C184.197 93.1929 185.097 92.2659 185.965 91.3629C187.938 89.2437 190.026 87.2349 192.22 85.3459C196.39 81.8819 200.84 78.6639 205.141 75.5459L206.167 74.7989C207.514 73.9206 209.035 73.3438 210.625 73.1079C211.072 73.0307 211.526 72.9949 211.98 73.0009H213.835C214.077 73.0044 214.319 72.9823 214.557 72.9349C219.275 71.6861 224.289 72.2396 228.62 74.4875C232.952 76.7354 236.291 80.5164 237.986 85.0929C239.133 87.0403 239.827 89.2208 240.016 91.4728C240.205 93.7248 239.885 95.9905 239.079 98.1019C238.325 99.7511 237.193 101.2 235.776 102.331C234.358 103.461 232.694 104.243 230.919 104.612H230.87C227.85 105.294 225.137 106.948 223.148 109.321C221.159 111.694 220.004 114.654 219.861 117.747V117.969C219.713 118.847 219.582 119.718 219.461 120.596C219.28 121.729 219.1 122.903 218.911 124.06C217.844 130.307 216.727 133.041 210.538 133.041H209.454C209.388 133.517 209.306 134.001 209.241 134.469C208.889 137.163 208.382 139.834 207.722 142.469C207.722 142.526 206.212 147.904 203.035 148.38H202.69C200.145 148.305 197.732 147.235 195.967 145.4C194.836 144.254 193.83 142.991 192.967 141.632C192.342 140.666 191.65 139.745 190.898 138.874C190.078 138.013 189.021 137.416 187.861 137.158C186.561 137.104 185.295 136.727 184.177 136.06C183.06 135.394 182.126 134.459 181.461 133.341C181.067 132.126 180.985 130.832 181.222 129.577C181.459 128.321 182.007 127.146 182.816 126.158C183.522 125.025 184.253 123.909 185.024 122.758C183.425 122.228 181.876 121.558 180.394 120.758C178.65 119.675 176.687 118.992 174.647 118.758C173.744 118.797 172.859 119.028 172.053 119.436C171.246 119.843 170.535 120.418 169.968 121.122C170.073 121.914 170.218 122.701 170.403 123.478C171.372 127.172 172.414 130.924 173.416 134.544C173.963 136.437 174.486 138.334 174.984 140.233C176.511 145.914 176.954 148.976 175.378 151.033C174.757 151.703 173.989 152.22 173.134 152.542C172.279 152.864 171.361 152.982 170.452 152.888C168.396 152.826 166.348 152.601 164.328 152.215C163.585 152.122 162.832 152.179 162.112 152.384C161.392 152.589 160.721 152.938 160.139 153.408C159.557 153.879 159.077 154.462 158.726 155.123C158.375 155.784 158.161 156.509 158.097 157.255C157.983 159.403 157.238 161.469 155.954 163.195C154.67 164.921 152.905 166.229 150.881 166.955C148.388 168.03 146.013 169.361 143.796 170.928C141.859 172.683 140.082 174.606 138.485 176.675L138.395 176.782L135.341 180.246C133.149 182.758 130.883 185.352 128.527 187.807C126.23 190.143 123.76 192.302 121.139 194.268C119.995 195.109 118.805 195.887 117.576 196.599C116.501 197.239 115.499 197.855 114.563 198.545L114.358 198.685C112.309 199.825 110.519 201.379 109.104 203.249C107.126 207.334 106.661 211.988 107.791 216.384L107.848 216.597V216.81C108.011 222.541 107.386 228.267 105.993 233.828C105.317 239.838 102.602 245.436 98.301 249.688C97.3303 250.812 96.4622 252.021 95.707 253.3C94.5618 255.366 93.0513 257.208 91.249 258.735H91.2C87.1163 261.622 82.5878 263.821 77.794 265.245C77.576 265.312 77.3491 265.346 77.121 265.345C74.7 265.453 71.634 260.913 70.92 259.058ZM42.286 134.983H42.532L42.762 135.049C44.576 135.583 46.046 137.717 47.121 141.387C47.999 144.449 48.59 147.618 49.165 150.68L49.641 153.143C50.3617 155.093 50.6421 157.179 50.462 159.251V159.415L50.421 159.571C49.2561 163.933 49.7503 168.572 51.808 172.591L51.882 172.772C53.36 176.565 54.788 180.439 56.175 184.191C56.7223 185.674 57.2697 187.149 57.817 188.616L81.149 251.402C81.502 251.146 81.8417 250.872 82.167 250.581L83.054 249.481C85.443 246.509 87.914 243.447 90.032 240.281C94.9207 232.865 96.6712 223.815 94.9 215.111C94.097 211.055 94.2462 206.868 95.3359 202.879C96.4257 198.891 98.4262 195.209 101.18 192.125C103.874 189.5 106.912 187.252 110.21 185.443C113.452 183.67 116.435 181.461 119.076 178.876C120.825 176.976 122.631 175.05 124.363 173.195L128.542 168.729C130.546 166.238 132.741 163.907 135.109 161.759L135.216 161.659C136.763 160.528 138.412 159.544 140.142 158.72C141.353 158.152 142.529 157.513 143.664 156.807C144.66 156.156 145.427 155.208 145.856 154.098C146.916 150.419 148.969 147.103 151.79 144.515C154.612 141.927 158.092 140.167 161.848 139.428L160.838 135.537C159.533 130.562 158.195 125.431 156.738 120.432C156.36 119.533 156.176 118.564 156.198 117.589C156.22 116.614 156.448 115.654 156.866 114.773C157.285 113.892 157.884 113.109 158.626 112.476C159.368 111.843 160.235 111.373 161.171 111.098C164.743 109.374 168.436 107.915 172.221 106.731L172.402 106.649H172.55C173.799 106.462 175.064 106.395 176.326 106.449C173.418 105.53 170.847 103.771 168.938 101.392C168.302 100.776 167.63 100.198 166.927 99.6599L166.82 99.8729C166.22 101.113 165.646 102.287 165.104 103.444C163.175 107.606 161.648 110.89 157.995 110.89C155.559 110.623 153.195 109.902 151.025 108.764C135.477 102.123 119.772 95.4639 104.363 88.9389L103.616 88.6189C98.551 86.4599 96.006 85.3349 94.832 83.2259C93.658 81.1169 94.339 78.4399 95.653 73.8509L96.162 72.1109C96.338 71.4237 96.4779 70.7278 96.581 70.0259V69.8259C92.4112 65.3663 88.6862 60.5107 85.459 55.3279C85.139 54.8189 84.753 54.2849 84.343 53.6859C83.3945 52.717 82.6624 51.5578 82.1952 50.2849C81.7281 49.012 81.5364 47.6544 81.633 46.3019C81.8958 45.3466 82.348 44.4538 82.9629 43.6768C83.5777 42.8997 84.3426 42.2543 85.212 41.7789C85.2215 41.6132 85.2436 41.4484 85.278 41.2859C85.6956 38.6 86.3385 35.954 87.2 33.3759L87.249 33.2449C88.549 30.1449 90.024 27.1779 91.739 23.7449L93.011 21.1839C90.7723 20.7976 88.5012 20.6301 86.23 20.6839C84.1897 21.0224 82.1251 21.1926 80.057 21.1929C73.3579 21.1894 66.7798 19.4074 60.995 16.0289C60.174 15.5769 59.222 15.2079 58.253 14.7889C57.1304 14.3422 56.034 13.8324 54.969 13.2619C54.1159 12.729 53.1476 12.408 52.145 12.3259C51.7038 12.3146 51.2684 12.4283 50.889 12.6539C51.168 13.2119 51.48 13.7619 51.784 14.2959C53.1492 16.2417 53.914 18.545 53.984 20.9209V20.9779C53.551 25.1314 54.2005 29.3262 55.8693 33.1543C57.5381 36.9823 60.1693 40.3132 63.507 42.8229L63.622 42.9229C64.4334 43.4523 65.0187 44.2647 65.264 45.2019C65.3677 45.8541 65.5046 46.5006 65.674 47.1389C66.4874 49.0825 66.5519 51.2586 65.855 53.2469C64.517 55.7589 63.22 58.3529 61.947 60.8649C56.9034 72.8865 49.3459 83.6897 39.782 92.5489C39.4083 92.8693 39.0772 93.2363 38.797 93.6409C37.7067 95.4293 35.9864 96.7447 33.9747 97.3281C31.9631 97.9115 29.8059 97.7206 27.928 96.7929C27.181 96.5549 26.417 96.3499 25.646 96.1769C25.1919 96.9893 24.9921 97.9193 25.0727 98.8464C25.1533 99.7736 25.5105 100.655 26.098 101.377L26.246 101.59C28.4849 105.276 30.4072 109.146 31.992 113.157C33.0536 114.75 33.7033 116.581 33.8829 118.487C34.0625 120.392 33.7664 122.313 33.0211 124.076C32.2758 125.839 31.1046 127.39 29.6125 128.589C28.1205 129.788 26.3542 130.598 24.472 130.946C23.897 131.151 23.323 131.381 22.74 131.611C23.4927 132.095 24.1418 132.723 24.6499 133.46C25.158 134.196 25.5149 135.026 25.7 135.902C25.971 138.061 24.657 140.002 22.047 143.184L27.884 147.56L29.484 145.385C31.2909 142.809 33.248 140.342 35.345 137.997C36.1847 137.057 37.2131 136.306 38.3632 135.791C39.5132 135.276 40.759 135.009 42.019 135.009L42.286 134.983ZM186.646 109.091C188.711 109.949 190.855 110.606 193.046 111.053C196.691 111.644 200.221 112.58 201.428 115.346C202.635 118.112 200.812 121.446 198.883 124.376C198.407 125.082 197.947 125.804 197.463 126.568L197.299 126.822L197.874 127.536C200.337 121.412 201.609 119.655 206.321 119.655H207.142C207.133 119.559 207.15 119.463 207.191 119.376L207.265 118.892C209.112 107.9 211.189 95.4549 226.852 93.4429H226.975C227.256 93.0856 227.455 92.6708 227.558 92.2279C227.046 90.8346 226.258 89.559 225.24 88.478C224.223 87.3969 222.998 86.5325 221.638 85.9368C220.278 85.3411 218.812 85.0264 217.328 85.0114C215.844 84.9965 214.371 85.2817 213 85.8499L210.841 87.3689C207.204 89.9379 203.453 92.5979 199.619 95.0529C197.345 96.4809 196.335 97.5159 196.426 99.6169C196.557 100.621 196.462 101.641 196.15 102.603C195.838 103.566 195.315 104.447 194.62 105.183C193.929 105.916 193.086 106.489 192.15 106.862C191.214 107.235 190.208 107.399 189.202 107.342L187.88 107.391C186.58 107.448 185.245 107.498 183.931 107.498C183.11 107.498 182.331 107.498 181.517 107.424C183.252 107.895 184.962 108.454 186.64 109.099L186.646 109.091Z" fill="#414141"/>
</g>
<defs>
<clipPath id="clip0_109_26">
<rect width="240.07" height="265.339" fill="white"/>
</clipPath>
</defs>
</svg>
