<svg width="28" height="28" viewBox="0 0 28 28" fill="none" xmlns="http://www.w3.org/2000/svg">
<g clip-path="url(#clip0_109_15)">
<path d="M22.5221 6.92787C21.4471 4.98487 20.3691 3.04586 19.3081 1.09486C19.1454 0.750585 18.8834 0.462838 18.5559 0.268601C18.2284 0.0743644 17.8502 -0.0174827 17.4701 0.00486841C13.4321 0.0218684 9.39504 0.0308635 5.35704 -0.000136476C4.92587 -0.0306346 4.49577 0.0726731 4.12548 0.29567C3.75519 0.518668 3.46278 0.850492 3.28807 1.24587C2.29607 3.11287 1.26009 4.95687 0.23009 6.80287C0.0744514 7.077 -0.00536598 7.38767 -0.000988851 7.70287C0.00634448 12.0949 0.00801603 16.4865 0.00401603 20.8779C0.00401603 22.1339 0.543976 22.6779 1.81298 22.6779H18.336C18.477 22.6779 18.62 22.6779 18.76 22.6679C18.8318 22.6695 18.9032 22.6554 18.969 22.6267C19.0348 22.5979 19.0935 22.5551 19.1411 22.5014C19.1887 22.4476 19.2241 22.3841 19.2446 22.3152C19.2652 22.2464 19.2703 22.1739 19.26 22.1029C19.2661 22.036 19.2583 21.9687 19.2369 21.9051C19.2155 21.8415 19.181 21.7831 19.1357 21.7336C19.0905 21.6841 19.0354 21.6446 18.974 21.6176C18.9126 21.5906 18.8461 21.5767 18.779 21.5769C18.603 21.5619 18.426 21.5649 18.248 21.5649H1.885C1.196 21.5649 1.15709 21.5259 1.15709 20.8459C1.15709 16.7199 1.16401 12.5939 1.14501 8.46785C1.14501 8.03385 1.27608 7.95786 1.67308 7.95986C4.89608 7.97486 8.11903 7.96886 11.342 7.96886C14.583 7.96886 17.8241 7.97588 21.0641 7.95888C21.4591 7.95888 21.5761 8.04888 21.5641 8.45888C21.5341 9.57488 21.5481 10.6899 21.5581 11.8059C21.5581 12.3059 21.8111 12.5389 22.2261 12.4639C22.6101 12.3949 22.6681 12.1139 22.6691 11.7889C22.6691 10.3542 22.6724 8.92088 22.6791 7.48888C22.6781 7.29117 22.6239 7.09736 22.5221 6.92787ZM10.7621 6.46687C10.7621 6.68187 10.762 6.82288 10.467 6.82088C7.53103 6.80688 4.59505 6.80687 1.65905 6.80187C1.64705 6.80187 1.63601 6.78388 1.62401 6.77388C1.56001 6.64988 1.67105 6.57385 1.71605 6.48985C2.60205 4.86785 3.50007 3.25387 4.38207 1.62987C4.44956 1.47754 4.56287 1.35007 4.70629 1.26527C4.8497 1.18048 5.016 1.1426 5.18199 1.15688C6.91533 1.17221 8.64873 1.17221 10.3821 1.15688C10.6711 1.15688 10.773 1.22187 10.77 1.53087C10.75 3.17587 10.7571 4.82087 10.7621 6.46687ZM19.77 6.81487C17.295 6.81487 14.82 6.80985 12.344 6.82185C12.016 6.82185 11.896 6.76288 11.9 6.39888C11.922 4.78988 11.918 3.18085 11.9 1.57185C11.9 1.26185 11.953 1.14986 12.3 1.15386C14.05 1.17386 15.8 1.16587 17.551 1.16087C17.6733 1.14057 17.7989 1.15689 17.9119 1.20778C18.0248 1.25867 18.1202 1.34185 18.186 1.44685C19.162 3.21185 20.1381 4.97986 21.1521 6.81386L19.77 6.81487Z" fill="#414141"/>
<path d="M19.2079 18.226C19.9199 18.838 20.5969 19.417 21.2709 20C21.5119 20.208 21.7609 20.41 21.9789 20.64C22.0697 20.7282 22.1223 20.8485 22.1255 20.975C22.1287 21.1016 22.0822 21.2244 21.9959 21.317C21.9243 21.4311 21.8107 21.5122 21.6796 21.5429C21.5485 21.5736 21.4107 21.5514 21.2959 21.481C21.1745 21.4094 21.0609 21.3252 20.9569 21.23C19.7729 20.2193 18.59 19.2073 17.408 18.194C16.852 17.719 16.84 17.473 17.382 17.006C18.602 15.955 19.8289 14.913 21.0469 13.86C21.3549 13.594 21.667 13.478 21.967 13.826C22.267 14.174 22.084 14.475 21.785 14.731C20.928 15.464 20.0729 16.199 19.1419 16.997C19.9369 16.9915 20.7307 17.0631 21.5119 17.211C23.1325 17.5878 24.5779 18.502 25.6128 19.8048C26.6478 21.1075 27.2114 22.7222 27.212 24.386C27.212 25.094 27.205 25.803 27.212 26.511C27.218 26.903 27.0739 27.193 26.6659 27.211C26.2149 27.23 26.066 26.911 26.06 26.511C26.05 25.626 26.0699 24.74 26.0369 23.856C25.9693 23.0337 25.7375 22.2332 25.3553 21.502C24.973 20.7708 24.4481 20.1236 23.8114 19.5988C23.1748 19.0739 22.4394 18.682 21.6487 18.4462C20.858 18.2104 20.0281 18.1356 19.2079 18.226Z" fill="#414141"/>
</g>
<defs>
<clipPath id="clip0_109_15">
<rect width="27.217" height="27.21" fill="white"/>
</clipPath>
</defs>
</svg>
