<svg width="35" height="19" viewBox="0 0 35 19" fill="none" xmlns="http://www.w3.org/2000/svg">
<g clip-path="url(#clip0_109_19)">
<path d="M11.16 16.425C9.741 16.425 8.293 16.407 6.846 16.433C6.205 16.445 5.94599 16.205 5.96499 15.555C5.99699 14.473 5.974 13.39 5.974 12.222H2.341C2.14144 12.2532 1.93774 12.2457 1.74099 12.2C1.54099 12.111 1.25201 11.89 1.26501 11.752C1.28501 11.542 1.51201 11.331 1.69201 11.167C1.77001 11.096 1.95301 11.137 2.09201 11.137C4.17601 11.137 6.25999 11.13 8.34399 11.144C8.58751 11.1391 8.82709 11.2059 9.03299 11.336C9.09555 11.4069 9.13881 11.4928 9.1586 11.5852C9.17839 11.6777 9.17405 11.7737 9.14599 11.864C9.09027 11.9534 9.01615 12.0298 8.92856 12.0883C8.84096 12.1467 8.7419 12.1859 8.638 12.203C8.148 12.249 7.651 12.219 7.112 12.219V15.286H11.212C11.3476 14.6391 11.6931 14.0552 12.1947 13.6248C12.6963 13.1944 13.326 12.9418 13.986 12.906C14.6244 12.8656 15.2589 13.031 15.7963 13.3781C16.3336 13.7251 16.7454 14.2355 16.971 14.834C17.055 15.034 17.291 15.315 17.46 15.317C19.948 15.348 22.437 15.338 24.984 15.338V1.14401H7.11099V2.81702H9.92999C10.32 2.81702 10.773 2.77202 10.77 3.33502C10.77 3.85402 10.361 3.90704 9.945 3.90604C7.95167 3.90204 5.95833 3.90204 3.96499 3.90604C3.87399 3.90604 3.75 3.94103 3.699 3.89603C3.49 3.71103 3.299 3.49602 3.108 3.29602C3.314 3.13602 3.50799 2.85702 3.72799 2.83902C4.44299 2.78002 5.167 2.81702 5.974 2.81702C5.974 2.31702 5.974 1.86703 5.974 1.42203C5.974 0.292028 6.27398 -0.000976562 7.43798 -0.000976562C10.428 -0.000976562 13.4183 -0.000976562 16.409 -0.000976562H24.564C25.871 -0.000976562 26.125 0.247017 26.127 1.52402C26.127 2.38502 26.169 3.24802 26.113 4.10602C26.073 4.73402 26.313 4.87303 26.888 4.84903C27.928 4.80603 28.972 4.84904 30.014 4.83304C30.3086 4.81287 30.6024 4.88181 30.8573 5.03091C31.1121 5.18001 31.3162 5.40237 31.443 5.66904C32.377 7.36904 33.366 9.04902 34.254 10.778C34.5205 11.3706 34.6758 12.0073 34.712 12.656C34.7583 13.4476 34.7644 14.2409 34.73 15.033C34.724 16.167 34.476 16.41 33.323 16.422C33.166 16.422 33.009 16.422 32.83 16.422C32.7148 16.9705 32.451 17.4766 32.0674 17.8851C31.6838 18.2936 31.1951 18.5887 30.655 18.738C29.9408 18.946 29.1741 18.8729 28.512 18.5338C27.8499 18.1946 27.3426 17.6151 27.094 16.914C27.0615 16.7534 26.968 16.6116 26.8332 16.5184C26.6984 16.4252 26.5328 16.3878 26.371 16.414C23.471 16.427 20.571 16.414 17.671 16.435C17.5419 16.4391 17.4153 16.4724 17.3009 16.5323C17.1864 16.5922 17.087 16.6773 17.01 16.781C16.7989 17.3952 16.3993 17.9269 15.8681 18.3004C15.3369 18.674 14.7013 18.8702 14.052 18.861C13.4024 18.8301 12.7799 18.591 12.2767 18.1789C11.7735 17.7669 11.4164 17.2038 11.258 16.573C11.2297 16.5209 11.1969 16.4714 11.16 16.425ZM33.618 15.315C33.618 14.249 33.642 13.255 33.605 12.263C33.5816 11.926 33.4836 11.5984 33.318 11.304C32.418 9.63502 31.489 7.97802 30.556 6.32602C30.466 6.16702 30.278 5.95801 30.131 5.95401C28.831 5.92501 27.523 5.93701 26.191 5.93701V15.285C26.861 15.36 26.861 15.36 27.091 14.785C27.2484 14.3837 27.4909 14.0213 27.802 13.7228C28.1131 13.4244 28.4852 13.197 28.8927 13.0564C29.3002 12.9158 29.7333 12.8653 30.1623 12.9084C30.5912 12.9515 31.0056 13.0872 31.377 13.306C32.1086 13.7561 32.6332 14.4766 32.837 15.311L33.618 15.315ZM16.037 15.885C16.0389 15.3855 15.8433 14.9056 15.4928 14.5497C15.1424 14.1938 14.6655 13.9908 14.166 13.985C13.6648 13.9866 13.1844 14.1855 12.8288 14.5387C12.4732 14.8918 12.271 15.3709 12.266 15.872C12.2667 16.3736 12.4643 16.8549 12.8163 17.2123C13.1682 17.5697 13.6465 17.7746 14.148 17.783C14.6498 17.7793 15.1299 17.578 15.4842 17.2227C15.8386 16.8675 16.0387 16.3868 16.041 15.885H16.037ZM27.997 15.878C27.997 16.3781 28.1941 16.8581 28.5457 17.2138C28.8973 17.5695 29.3749 17.7722 29.875 17.778C30.3757 17.7684 30.8531 17.5641 31.2057 17.2085C31.5584 16.8529 31.7586 16.3738 31.764 15.873C31.7609 15.3718 31.5603 14.892 31.2057 14.5376C30.8512 14.1832 30.3713 13.9829 29.87 13.98C29.6221 13.9809 29.3769 14.0308 29.1484 14.1268C28.9199 14.2228 28.7126 14.363 28.5384 14.5394C28.3643 14.7158 28.2267 14.9249 28.1336 15.1546C28.0405 15.3843 27.9938 15.6302 27.996 15.878H27.997Z" fill="#414141"/>
<path d="M5.97399 8.68C5.97399 7.68 5.98199 6.753 5.97399 5.831C5.96899 5.431 6.028 5.05001 6.496 5.04001C7.01 5.02901 7.07 5.44 7.066 5.857C7.057 6.757 7.066 7.665 7.066 8.681H7.79699C9.80966 8.681 11.8227 8.681 13.836 8.681C14.236 8.681 14.667 8.665 14.676 9.211C14.685 9.757 14.265 9.768 13.858 9.767C10.85 9.767 7.84199 9.767 4.83399 9.767C4.41499 9.767 4.00401 9.72401 4.01701 9.20401C4.03001 8.68401 4.461 8.66702 4.867 8.67902C5.198 8.68802 5.53499 8.68 5.97399 8.68Z" fill="#414141"/>
<path d="M2.438 5.81812C2.979 5.81812 3.51998 5.81812 4.06098 5.81812C4.44598 5.81812 4.80098 5.93511 4.71998 6.36111C4.66837 6.49208 4.58494 6.60814 4.47721 6.69876C4.36948 6.78938 4.24088 6.8517 4.10301 6.88013C2.93301 6.93213 1.75799 6.93113 0.587991 6.88013C0.456098 6.84144 0.335529 6.7714 0.236612 6.67596C0.137695 6.58053 0.0633815 6.46255 0.0199982 6.33212C-0.0850018 5.91512 0.255978 5.81813 0.611978 5.82013C1.21998 5.82013 1.829 5.81812 2.438 5.81812Z" fill="#414141"/>
</g>
<defs>
<clipPath id="clip0_109_19">
<rect width="34.752" height="18.868" fill="white"/>
</clipPath>
</defs>
</svg>
