<svg width="1040" height="620" viewBox="0 0 1040 620" fill="none" xmlns="http://www.w3.org/2000/svg">
<g opacity="0.6" filter="url(#filter0_d_8677_43470)">
<mask id="path-1-outside-1_8677_43470" maskUnits="userSpaceOnUse" x="32" y="16" width="976" height="556" fill="black">
<rect fill="white" x="32" y="16" width="976" height="556"/>
<path d="M40 24H1000V564H40V24Z"/>
</mask>
<path d="M40 24H1000V564H40V24Z" fill="#131314"/>
<path d="M40 24V16H32V24H40ZM1000 24H1008V16H1000V24ZM1000 564V572H1008V564H1000ZM40 564H32V572H40V564ZM40 32H1000V16H40V32ZM992 24V564H1008V24H992ZM1000 556H40V572H1000V556ZM48 564V24H32V564H48Z" fill="black" mask="url(#path-1-outside-1_8677_43470)"/>
</g>
<defs>
<filter id="filter0_d_8677_43470" x="0" y="0" width="1040" height="620" filterUnits="userSpaceOnUse" color-interpolation-filters="sRGB">
<feFlood flood-opacity="0" result="BackgroundImageFix"/>
<feColorMatrix in="SourceAlpha" type="matrix" values="0 0 0 0 0 0 0 0 0 0 0 0 0 0 0 0 0 0 127 0" result="hardAlpha"/>
<feOffset dy="16"/>
<feGaussianBlur stdDeviation="16"/>
<feComposite in2="hardAlpha" operator="out"/>
<feColorMatrix type="matrix" values="0 0 0 0 0 0 0 0 0 0 0 0 0 0 0 0 0 0 0.25 0"/>
<feBlend mode="normal" in2="BackgroundImageFix" result="effect1_dropShadow_8677_43470"/>
<feBlend mode="normal" in="SourceGraphic" in2="effect1_dropShadow_8677_43470" result="shape"/>
</filter>
</defs>
</svg>
